# xmcd CD database file
#
# Track frame offsets:
#	150
#	36515
#	59625
#	80733
#	102531
#	128776
#	143431
#	155599
#	173981
#	187488
#	205484
#	224738
#	248184
#	266900
#	289416
#	306945
#
# Disc length: 4477 seconds
#
# Revision: 0
# Processed by: cddbd v1.5.2PL0 Copyright (c) Steve Scherf et al.
# Submitted via: CDex 1.70beta2
#
DISCID=14117b10
DTITLE=Bob Brookmeyer - The Essential Collection CD2
DYEAR=1955
DGENRE=Jazz
TTITLE0=The Bulldog Blues
TTITLE1=Under The Lilacs
TTITLE2=Rocky Scotch
TTITLE3=Potrezebie
TTITLE4=They Say It's Wonderful
TTITLE5=Out Of This World
TTITLE6=There's A Small Hotel
TTITLE7=You Are Too Beautiful
TTITLE8=When Your Lover Has Gone
TTITLE9=Low Life
TTITLE10=Rustic Hop
TTITLE11=With The Wind And The Rain In Your Hair
TTITLE12=Happy Minor
TTITLE13=Scrapple From The Apple
TTITLE14=Long Ago And Far Away
TTITLE15=Gone With The Wind
EXTD=YEAR: 1955
EXTT0=
EXTT1=
EXTT2=
EXTT3=
EXTT4=
EXTT5=
EXTT6=
EXTT7=
EXTT8=
EXTT9=
EXTT10=
EXTT11=
EXTT12=
EXTT13=
EXTT14=
EXTT15=
PLAYORDER=
